<svg width="344" height="201" viewBox="0 0 344 201" fill="none" xmlns="http://www.w3.org/2000/svg">
<rect width="344" height="201" fill="#9146FF"/>
<path d="M93.2344 92.8702C93.2344 92.0347 92.9182 91.3886 92.2857 90.9319C91.6644 90.464 90.5714 90.063 89.0069 89.7288C87.4535 89.3946 86.2164 88.9936 85.2954 88.5257C84.3856 88.0578 83.7087 87.5009 83.2649 86.8548C82.8322 86.2087 82.6158 85.44 82.6158 84.5488C82.6158 83.0673 83.2372 81.8141 84.4799 80.7892C85.7337 79.7644 87.3315 79.2519 89.2732 79.2519C91.3148 79.2519 92.9681 79.7811 94.233 80.8393C95.509 81.8976 96.147 83.2511 96.147 84.8997H93.0513C93.0513 84.0531 92.6907 83.3235 91.9695 82.7108C91.2594 82.0981 90.3606 81.7918 89.2732 81.7918C88.1526 81.7918 87.276 82.0368 86.6436 82.527C86.0111 83.0171 85.6949 83.6577 85.6949 84.4486C85.6949 85.1949 85.9889 85.7575 86.577 86.1362C87.165 86.515 88.2247 86.877 89.7559 87.2224C91.2982 87.5677 92.5465 87.9799 93.5007 88.4589C94.4549 88.9379 95.1595 89.5171 95.6144 90.1967C96.0804 90.865 96.3135 91.6838 96.3135 92.653C96.3135 94.2682 95.6699 95.566 94.3828 96.5463C93.0957 97.5154 91.4258 98 89.3731 98C87.9307 98 86.6546 97.7438 85.5451 97.2314C84.4355 96.7189 83.5645 96.006 82.932 95.0925C82.3107 94.168 82 93.171 82 92.1015H85.0791C85.1345 93.1375 85.5451 93.9619 86.3107 94.5746C87.0874 95.1761 88.1082 95.4769 89.3731 95.4769C90.5381 95.4769 91.4702 95.2429 92.1692 94.7751C92.8793 94.2961 93.2344 93.6611 93.2344 92.8702Z" fill="white"/>
<path d="M104.502 75.2082V79.5861H107.864V81.9756H104.502V93.1877C104.502 93.9117 104.652 94.4576 104.951 94.8252C105.251 95.1817 105.761 95.3599 106.483 95.3599C106.838 95.3599 107.326 95.2931 107.947 95.1594V97.6658C107.137 97.8886 106.35 98 105.584 98C104.208 98 103.171 97.5823 102.472 96.7468C101.773 95.9113 101.423 94.7249 101.423 93.1877V81.9756H98.1442V79.5861H101.423V75.2082H104.502Z" fill="white"/>
<path d="M120.18 82.3599C119.714 82.2819 119.209 82.2429 118.666 82.2429C116.646 82.2429 115.276 83.1063 114.555 84.8329V97.6658H111.476V79.5861H114.472L114.521 81.6748C115.531 80.0596 116.963 79.2519 118.816 79.2519C119.415 79.2519 119.87 79.3299 120.18 79.4859V82.3599Z" fill="white"/>
<path d="M130.166 98C127.725 98 125.739 97.1979 124.208 95.5938C122.677 93.9786 121.911 91.8231 121.911 89.1272V88.5591C121.911 86.7656 122.25 85.1671 122.926 83.7635C123.614 82.3488 124.569 81.2459 125.789 80.455C127.021 79.653 128.352 79.2519 129.784 79.2519C132.125 79.2519 133.945 80.0261 135.243 81.5746C136.541 83.123 137.19 85.3398 137.19 88.2249V89.5116H124.99C125.035 91.2939 125.551 92.7365 126.538 93.8393C127.537 94.931 128.802 95.4769 130.333 95.4769C131.42 95.4769 132.341 95.2541 133.096 94.8085C133.85 94.3629 134.51 93.7725 135.076 93.0373L136.957 94.5077C135.448 96.8359 133.184 98 130.166 98ZM129.784 81.7918C128.541 81.7918 127.498 82.2485 126.655 83.162C125.811 84.0643 125.29 85.3342 125.09 86.9717H134.111V86.7378C134.022 85.1671 133.601 83.9529 132.846 83.0951C132.092 82.2262 131.071 81.7918 129.784 81.7918Z" fill="white"/>
<path d="M151.886 97.6658C151.709 97.3093 151.564 96.6744 151.454 95.7609C150.022 97.2536 148.313 98 146.327 98C144.552 98 143.093 97.4987 141.95 96.4961C140.818 95.4824 140.252 94.2014 140.252 92.653C140.252 90.7704 140.963 89.3111 142.383 88.2751C143.814 87.2279 145.822 86.7044 148.408 86.7044H151.404V85.2841C151.404 84.2035 151.082 83.3458 150.438 82.7108C149.795 82.0647 148.846 81.7416 147.592 81.7416C146.494 81.7416 145.573 82.0201 144.829 82.5771C144.086 83.1341 143.714 83.8081 143.714 84.599H140.619C140.619 83.6967 140.935 82.8278 141.567 81.9923C142.211 81.1457 143.076 80.4773 144.164 79.9871C145.262 79.497 146.466 79.2519 147.775 79.2519C149.85 79.2519 151.476 79.7755 152.652 80.8226C153.828 81.8586 154.438 83.2901 154.483 85.117V93.4383C154.483 95.0981 154.693 96.4182 155.115 97.3985V97.6658H151.886ZM146.777 95.3098C147.742 95.3098 148.657 95.0591 149.523 94.5578C150.388 94.0566 151.015 93.4049 151.404 92.6028V88.8933H148.99C145.218 88.8933 143.331 90.0017 143.331 92.2185C143.331 93.1877 143.653 93.9452 144.297 94.491C144.94 95.0368 145.767 95.3098 146.777 95.3098Z" fill="white"/>
<path d="M162.205 79.5861L162.288 81.5913C163.609 80.0317 165.39 79.2519 167.631 79.2519C170.15 79.2519 171.864 80.2211 172.774 82.1594C173.373 81.2905 174.15 80.5887 175.104 80.054C176.069 79.5193 177.207 79.2519 178.516 79.2519C182.466 79.2519 184.474 81.3518 184.541 85.5514V97.6658H181.462V85.7352C181.462 84.443 181.168 83.4794 180.58 82.8445C179.992 82.1984 179.004 81.8753 177.617 81.8753C176.474 81.8753 175.526 82.2207 174.771 82.9113C174.017 83.5908 173.578 84.5099 173.456 85.6684V97.6658H170.361V85.8188C170.361 83.1898 169.079 81.8753 166.516 81.8753C164.497 81.8753 163.115 82.7386 162.372 84.4653V97.6658H159.293V79.5861H162.205Z" fill="white"/>
<path d="M189.268 96.045C189.268 95.5103 189.423 95.0647 189.734 94.7082C190.055 94.3518 190.533 94.1735 191.165 94.1735C191.798 94.1735 192.275 94.3518 192.596 94.7082C192.929 95.0647 193.096 95.5103 193.096 96.045C193.096 96.5574 192.929 96.9863 192.596 97.3316C192.275 97.6769 191.798 97.8496 191.165 97.8496C190.533 97.8496 190.055 97.6769 189.734 97.3316C189.423 96.9863 189.268 96.5574 189.268 96.045Z" fill="white"/>
<path d="M196.957 88.4923C196.957 85.674 197.584 83.4293 198.838 81.7584C200.103 80.0874 201.828 79.2519 204.014 79.2519C205.767 79.2519 207.215 79.9092 208.358 81.2237V72H213.184V97.6658H208.841L208.607 95.7442C207.409 97.2481 205.867 98 203.981 98C201.861 98 200.158 97.1645 198.871 95.4936C197.595 93.8115 196.957 91.4777 196.957 88.4923ZM201.767 88.8432C201.767 90.5364 202.061 91.8342 202.649 92.7365C203.237 93.6388 204.092 94.09 205.212 94.09C206.699 94.09 207.748 93.4606 208.358 92.2018V85.0668C207.759 83.8081 206.721 83.1787 205.245 83.1787C202.926 83.1787 201.767 85.0668 201.767 88.8432Z" fill="white"/>
<path d="M227.348 97.6658C227.126 97.2314 226.965 96.6911 226.865 96.045C225.7 97.3483 224.186 98 222.322 98C220.558 98 219.093 97.4876 217.928 96.4627C216.774 95.4379 216.197 94.1457 216.197 92.5861C216.197 90.6701 216.902 89.1997 218.311 88.1748C219.731 87.15 221.778 86.632 224.452 86.6208H226.666V85.5848C226.666 84.7494 226.449 84.081 226.017 83.5797C225.595 83.0784 224.924 82.8278 224.003 82.8278C223.193 82.8278 222.555 83.0227 222.089 83.4126C221.634 83.8025 221.406 84.3372 221.406 85.0167H216.596C216.596 83.9696 216.918 83.0004 217.562 82.1093C218.205 81.2181 219.115 80.5219 220.291 80.0206C221.467 79.5081 222.788 79.2519 224.252 79.2519C226.472 79.2519 228.23 79.8145 229.528 80.9396C230.838 82.0536 231.492 83.6243 231.492 85.6517V93.4884C231.503 95.2039 231.742 96.5017 232.208 97.3817V97.6658H227.348ZM223.37 94.3072C224.08 94.3072 224.735 94.1512 225.334 93.8393C225.933 93.5163 226.377 93.0874 226.666 92.5527V89.4447H224.868C222.46 89.4447 221.179 90.2802 221.024 91.9512L221.007 92.2352C221.007 92.8368 221.218 93.3325 221.639 93.7224C222.061 94.1123 222.638 94.3072 223.37 94.3072Z" fill="white"/>
<path d="M240.946 75.1414V79.5861H244.025V83.1285H240.946V92.1517C240.946 92.8201 241.074 93.2991 241.329 93.5887C241.584 93.8783 242.072 94.0231 242.793 94.0231C243.326 94.0231 243.798 93.9841 244.208 93.9062V97.5656C243.265 97.8552 242.294 98 241.295 98C237.922 98 236.202 96.2901 236.136 92.8702V83.1285H233.506V79.5861H236.136V75.1414H240.946Z" fill="white"/>
<path d="M257.14 97.6658C256.918 97.2314 256.757 96.6911 256.657 96.045C255.492 97.3483 253.978 98 252.114 98C250.35 98 248.885 97.4876 247.72 96.4627C246.566 95.4379 245.989 94.1457 245.989 92.5861C245.989 90.6701 246.693 89.1997 248.103 88.1748C249.523 87.15 251.57 86.632 254.244 86.6208H256.458V85.5848C256.458 84.7494 256.241 84.081 255.809 83.5797C255.387 83.0784 254.716 82.8278 253.795 82.8278C252.985 82.8278 252.347 83.0227 251.881 83.4126C251.426 83.8025 251.198 84.3372 251.198 85.0167H246.388C246.388 83.9696 246.71 83.0004 247.354 82.1093C247.997 81.2181 248.907 80.5219 250.083 80.0206C251.259 79.5081 252.58 79.2519 254.044 79.2519C256.264 79.2519 258.022 79.8145 259.32 80.9396C260.63 82.0536 261.284 83.6243 261.284 85.6517V93.4884C261.295 95.2039 261.534 96.5017 262 97.3817V97.6658H257.14ZM253.162 94.3072C253.872 94.3072 254.527 94.1512 255.126 93.8393C255.725 93.5163 256.169 93.0874 256.458 92.5527V89.4447H254.66C252.252 89.4447 250.971 90.2802 250.816 91.9512L250.799 92.2352C250.799 92.8368 251.01 93.3325 251.431 93.7224C251.853 94.1123 252.43 94.3072 253.162 94.3072Z" fill="white"/>
<path opacity="0.8" d="M145.01 125.18C144.4 125.18 143.855 125.055 143.375 124.805C142.905 124.555 142.545 124.205 142.295 123.755L142.175 125H141.035V114.2H142.295V118.79C142.535 118.43 142.875 118.105 143.315 117.815C143.765 117.525 144.335 117.38 145.025 117.38C145.765 117.38 146.41 117.55 146.96 117.89C147.51 118.23 147.935 118.695 148.235 119.285C148.545 119.875 148.7 120.545 148.7 121.295C148.7 122.045 148.545 122.715 148.235 123.305C147.935 123.885 147.505 124.345 146.945 124.685C146.395 125.015 145.75 125.18 145.01 125.18ZM144.875 124.085C145.375 124.085 145.815 123.97 146.195 123.74C146.575 123.5 146.875 123.17 147.095 122.75C147.315 122.33 147.425 121.84 147.425 121.28C147.425 120.72 147.315 120.23 147.095 119.81C146.875 119.39 146.575 119.065 146.195 118.835C145.815 118.595 145.375 118.475 144.875 118.475C144.375 118.475 143.935 118.595 143.555 118.835C143.175 119.065 142.875 119.39 142.655 119.81C142.435 120.23 142.325 120.72 142.325 121.28C142.325 121.84 142.435 122.33 142.655 122.75C142.875 123.17 143.175 123.5 143.555 123.74C143.935 123.97 144.375 124.085 144.875 124.085ZM150.363 128.3L152.208 124.28H151.773L148.818 117.56H150.183L152.643 123.35L155.253 117.56H156.558L151.683 128.3H150.363ZM164.198 125C163.518 125 162.983 124.835 162.593 124.505C162.203 124.175 162.008 123.58 162.008 122.72V118.625H160.718V117.56H162.008L162.173 115.775H163.268V117.56H165.458V118.625H163.268V122.72C163.268 123.19 163.363 123.51 163.553 123.68C163.743 123.84 164.078 123.92 164.558 123.92H165.338V125H164.198ZM168.259 125L166.084 117.56H167.344L168.919 123.395L170.659 117.56H172.084L173.839 123.395L175.399 117.56H176.674L174.499 125H173.209L171.379 118.865L169.549 125H168.259ZM178.532 115.91C178.282 115.91 178.072 115.83 177.902 115.67C177.742 115.5 177.662 115.29 177.662 115.04C177.662 114.8 177.742 114.6 177.902 114.44C178.072 114.28 178.282 114.2 178.532 114.2C178.772 114.2 178.977 114.28 179.147 114.44C179.317 114.6 179.402 114.8 179.402 115.04C179.402 115.29 179.317 115.5 179.147 115.67C178.977 115.83 178.772 115.91 178.532 115.91ZM177.902 125V117.56H179.162V125H177.902ZM183.996 125C183.316 125 182.781 124.835 182.391 124.505C182.001 124.175 181.806 123.58 181.806 122.72V118.625H180.516V117.56H181.806L181.971 115.775H183.066V117.56H185.256V118.625H183.066V122.72C183.066 123.19 183.161 123.51 183.351 123.68C183.541 123.84 183.876 123.92 184.356 123.92H185.136V125H183.996ZM189.772 125.18C189.062 125.18 188.422 125.02 187.852 124.7C187.292 124.37 186.847 123.915 186.517 123.335C186.197 122.745 186.037 122.06 186.037 121.28C186.037 120.5 186.197 119.82 186.517 119.24C186.847 118.65 187.292 118.195 187.852 117.875C188.422 117.545 189.062 117.38 189.772 117.38C190.652 117.38 191.392 117.61 191.992 118.07C192.602 118.53 192.987 119.145 193.147 119.915H191.857C191.757 119.455 191.512 119.1 191.122 118.85C190.732 118.59 190.277 118.46 189.757 118.46C189.337 118.46 188.942 118.565 188.572 118.775C188.202 118.985 187.902 119.3 187.672 119.72C187.442 120.14 187.327 120.66 187.327 121.28C187.327 121.9 187.442 122.42 187.672 122.84C187.902 123.26 188.202 123.58 188.572 123.8C188.942 124.01 189.337 124.115 189.757 124.115C190.277 124.115 190.732 123.99 191.122 123.74C191.512 123.48 191.757 123.115 191.857 122.645H193.147C192.997 123.395 192.617 124.005 192.007 124.475C191.397 124.945 190.652 125.18 189.772 125.18ZM194.607 125V114.2H195.867V118.835C196.117 118.375 196.472 118.02 196.932 117.77C197.392 117.51 197.892 117.38 198.432 117.38C199.292 117.38 199.982 117.65 200.502 118.19C201.022 118.72 201.282 119.54 201.282 120.65V125H200.037V120.785C200.037 119.235 199.412 118.46 198.162 118.46C197.512 118.46 196.967 118.695 196.527 119.165C196.087 119.625 195.867 120.285 195.867 121.145V125H194.607Z" fill="white"/>
</svg>
